<svg xmlns="http://www.w3.org/2000/svg" viewBox="-11764 276 182.16 62">
	<g transform="translate(-11763.674 276.1)">
		<path fill="#51bb7b"
			  d="M181.8,28.3c0-.3-.3-.6-.6-.8-1.6-.8-3.2-1.5-4.8-2.3h-.1c-4.1-1.9-8.4-3.7-12.6-5.3l1.9-5.2a1.04,1.04,0,0,0-.6-1.3,212.315,212.315,0,0,0-149,0,1.04,1.04,0,0,0-.6,1.3l1.9,5.2C13.2,21.5,9.1,23.2,5.1,25h0c-1.6.7-3.2,1.5-4.8,2.3a1.037,1.037,0,0,0-.6.8A.923.923,0,0,0,0,29c4.5,4.2,8.9,8.5,13.1,12.9-.1,6.4.1,12.8.5,19a1.02,1.02,0,0,0,.5.8.9.9,0,0,0,.5.1c.2,0,.3,0,.4-.1a170.733,170.733,0,0,1,18.6-8,3.361,3.361,0,0,0,2.1-4.2h0l-1.9-5.4a177.189,177.189,0,0,1,113.3,0l-1.9,5.5h0a3.361,3.361,0,0,0,2.1,4.2,179.577,179.577,0,0,1,18.6,8,.6.6,0,0,0,.4.1.9.9,0,0,0,.5-.1,1.02,1.02,0,0,0,.5-.8c.4-6.3.5-12.7.5-19,4.3-4.4,8.8-8.6,13.4-12.7C181.8,29,181.9,28.6,181.8,28.3ZM15.4,41.5a.908.908,0,0,0-.3-.7c-4-4.2-8.1-8.3-12.4-12.3.9-.4,1.9-.9,2.8-1.3,4.2,4.1,8.3,8.4,12.2,12.8-.1,6.1,0,12.2.3,18.2-.8.4-1.6.7-2.3,1.1C15.4,53.4,15.3,47.4,15.4,41.5ZM33.2,51.9c-4.4,1.6-8.8,3.4-13.1,5.4-.3-5.8-.4-11.8-.2-17.6a.908.908,0,0,0-.3-.7q-5.85-6.45-12-12.6Q13,24,18.4,21.9L28,47.6v.2a.1.1,0,0,0,.1.1l.1.1c0,.1.1.1.1.2.9,1.5,2.7,1.5,3.8,1.5,1.7,0,1.9.3,2.1.6h0A1.569,1.569,0,0,1,33.2,51.9Zm0-4.3H32c-1.4,0-1.9-.1-2.1-.5l-.1-.2a.783.783,0,0,1,.1-.8,1.419,1.419,0,0,1,.9-.8h0c.5-.2.9-.3,1.4-.5Zm-.7-5h0c-.9.3-1.6.6-2.4.8h0a5.67,5.67,0,0,0-1.3.8L17.9,15a209.863,209.863,0,0,1,145.7,0L152.7,44.2a4.129,4.129,0,0,0-1.1-.7.1.1,0,0,1-.1-.1h-.1c-.8-.3-1.5-.5-2.3-.8h0A179.177,179.177,0,0,0,32.5,42.6Zm118.2,2.7a1.419,1.419,0,0,1,.9.8,2.2,2.2,0,0,1,.1.8l-.1.2c-.2.3-.7.5-2.1.5h-1.2l1-2.8C149.7,45,150.2,45.1,150.7,45.3Zm-3.3,4.9c.1-.4.4-.7,2.1-.7,1,0,2.8,0,3.7-1.4.1-.1.1-.2.2-.3l.1-.1a.1.1,0,0,1,.1-.1v-.2l9.6-25.7c3.8,1.4,7.5,3,11.2,4.6-4.3,4-8.4,8.2-12.4,12.4a.908.908,0,0,0-.3.7c.1,5.9,0,11.8-.2,17.6-4.3-2-8.7-3.8-13.1-5.4A1.037,1.037,0,0,1,147.4,50.2Zm18.9-9.4a1.08,1.08,0,0,0-.3.7c.1,5.9,0,11.9-.4,17.8-.8-.4-1.6-.7-2.3-1.1.3-6,.4-12.1.3-18.2,4-4.3,8.3-8.5,12.6-12.6.9.4,1.9.9,2.8,1.3C174.7,32.6,170.4,36.7,166.3,40.8Z"/>
		<path fill="#51bb7b"
			  d="M44.3,25.3c-.3-.3-.6-.2-.9.1A5.234,5.234,0,0,1,41,27a3.708,3.708,0,0,1-4.6-2.7,3.5,3.5,0,0,1,2.7-4.5,4.713,4.713,0,0,1,2.7.1c.4.1.7,0,.8-.4.1-.2.1-.3.2-.5.1-.4.1-.7-.3-.8a6.033,6.033,0,0,0-3.9-.1,5.49,5.49,0,1,0,2.8,10.6,6.366,6.366,0,0,0,3.4-2.2.642.642,0,0,0-.1-.9C44.6,25.5,44.4,25.4,44.3,25.3Z"/>
		<path fill="#51bb7b"
			  d="M49.7,15.5c-3.4.7-5.2,3.6-4.5,6.5a5.436,5.436,0,0,0,6.7,4.2,5.434,5.434,0,0,0,4.5-6.5C55.9,16.7,53.1,14.8,49.7,15.5Zm1.8,9a3.645,3.645,0,0,1-4.3-3,3.448,3.448,0,0,1,2.9-4.3,3.553,3.553,0,0,1,4.3,2.9A3.776,3.776,0,0,1,51.5,24.5Z"/>
		<path fill="#51bb7b"
			  d="M68.1,13.4a.585.585,0,0,0-.8-.5c-.3,0-.7.1-1,.1a.661.661,0,0,0-.7.6c-.5,1.7-.9,3.3-1.4,5a11.63,11.63,0,0,0-.3,1.6h0a12.3,12.3,0,0,0-.8-1.5c-.9-1.5-1.8-3-2.7-4.4-.2-.3-.4-.5-.8-.4-.3.1-.7.1-1,.2a.661.661,0,0,0-.6.7c.2,3.1.5,6.3.7,9.4a.505.505,0,0,0,.7.5c.2,0,.5-.1.7-.1a.661.661,0,0,0,.6-.7c-.1-1.8-.3-3.6-.4-5.4-.1-.7-.2-1.6-.2-1.6h0s.5,1,.9,1.6c.7,1.1,1.4,2.2,2.1,3.4a.812.812,0,0,0,.8.4c.2,0,.4-.1.6-.1a.661.661,0,0,0,.7-.6c.4-1.3.7-2.5,1.1-3.8a16.47,16.47,0,0,0,.4-1.7h0s.1.9.2,1.6c.3,1.8.7,3.5,1,5.3.1.4.3.6.7.5.2,0,.5-.1.7-.1a.505.505,0,0,0,.5-.7C69.3,19.6,68.7,16.5,68.1,13.4Z"/>
		<path fill="#51bb7b"
			  d="M72.7,12.3a1.7,1.7,0,0,0-.7.1c-.4,0-.6.3-.6.7l.9,9.3c0,.4.3.6.7.6a1.7,1.7,0,0,0,.7-.1c.4,0,.6-.3.6-.7-.3-3.1-.5-6.2-.8-9.4A.891.891,0,0,0,72.7,12.3Z"/>
		<path fill="#51bb7b"
			  d="M84.7,11.6H84c-.4,0-.7.2-.6.7.1,1.8.1,3.7.2,5.5a10.769,10.769,0,0,0,.2,1.6h0a10.16,10.16,0,0,0-1-1.6c-1.4-1.9-2.8-3.7-4.2-5.5-.4-.3-.6-.4-1-.3a2.769,2.769,0,0,0-.9.1c-.4,0-.6.3-.6.7.2,3.1.4,6.2.7,9.4,0,.4.3.6.7.6h.7c.4,0,.6-.2.6-.7-.1-1.8-.2-3.7-.3-5.5a10.769,10.769,0,0,0-.2-1.6h0s.6,1,1,1.6c1.4,1.8,2.8,3.7,4.2,5.5a.812.812,0,0,0,.8.4h.8a.53.53,0,0,0,.6-.6c-.1-3.1-.2-6.3-.2-9.4C85.4,11.8,85.1,11.6,84.7,11.6Z"/>
		<path fill="#51bb7b"
			  d="M97.3,16.7a16.2,16.2,0,0,1-2.2-.1c-.4,0-.7.2-.7.6v.4a.53.53,0,0,0,.6.6h1.1v1.2a3.957,3.957,0,0,1-2.8,1.1,3.634,3.634,0,0,1-3.6-3.8A3.541,3.541,0,0,1,93.5,13a4.661,4.661,0,0,1,2.5.7c.4.2.7.2.9-.1.1-.1.2-.3.3-.4a.642.642,0,0,0-.1-.9,8.01,8.01,0,0,0-3.7-1.1c-3.4,0-5.9,2.4-5.8,5.6A5.312,5.312,0,0,0,93,22.2a4.7,4.7,0,0,0,3.2-1.1h0v.6c0,.3.2.5.6.5h.4a.53.53,0,0,0,.6-.6c.1-1.4.1-2.9.2-4.3A.661.661,0,0,0,97.3,16.7Z"/>
		<path fill="#51bb7b"
			  d="M107.8,12.1c-2.2-.2-3.9.9-4,2.8-.2,3.3,5,3.3,4.8,5.3a1.384,1.384,0,0,1-1.7,1.1,4.136,4.136,0,0,1-2.1-.9c-.4-.2-.6-.2-.9.1a1.756,1.756,0,0,1-.4.5.631.631,0,0,0,0,.9,6.018,6.018,0,0,0,3.2,1.3,3.331,3.331,0,0,0,3.9-2.8c.3-3.4-4.9-3.3-4.7-5.3.1-.7.8-1.1,1.8-1.1a3.745,3.745,0,0,1,1.9.8c.3.2.6.3.9-.1.1-.2.2-.3.3-.5a.642.642,0,0,0-.1-.9A4.62,4.62,0,0,0,107.8,12.1Z"/>
		<path fill="#51bb7b"
			  d="M118.6,13.2a5.382,5.382,0,0,0-6.4,4.7,5.7,5.7,0,0,0,11.3,1.5A5.422,5.422,0,0,0,118.6,13.2Zm2.9,5.9a3.766,3.766,0,0,1-4.1,3.3,3.59,3.59,0,0,1-3.1-4.2,3.628,3.628,0,1,1,7.2.9Z"/>
		<path fill="#51bb7b"
			  d="M131.6,15.4a5.386,5.386,0,0,0-6.7,4.3,5.5,5.5,0,0,0,4.5,6.5,5.569,5.569,0,0,0,6.7-4.3C136.9,19,135,16.1,131.6,15.4Zm2.6,6.1a3.694,3.694,0,0,1-4.3,3,3.636,3.636,0,0,1-2.8-4.4,3.619,3.619,0,1,1,7.1,1.4Z"/>
		<path fill="#51bb7b"
			  d="M147.8,19.6c-.2-.1-.5-.1-.7-.2-.4-.1-.7,0-.8.4-.5,1.8-1,3.5-1.5,5.3a9.435,9.435,0,0,0-.3,1.6h0s-.2-1.1-.4-1.8l-2.4-6.6a.877.877,0,0,0-.7-.6c-.3-.1-.6-.1-.8-.2a.618.618,0,0,0-.8.5c-.7,3-1.5,6.1-2.2,9.1a.618.618,0,0,0,.5.8c.2.1.5.1.7.2a.618.618,0,0,0,.8-.5c.4-1.8.9-3.6,1.3-5.3a9.435,9.435,0,0,0,.3-1.6h0s.3,1.1.5,1.8c.8,2.2,1.6,4.4,2.3,6.5a.9.9,0,0,0,.6.6,2.354,2.354,0,0,0,.8.2c.4.1.7,0,.8-.4.9-3,1.7-6,2.6-9A.76.76,0,0,0,147.8,19.6Z"/>
	</g>
</svg>
