<svg xmlns="http://www.w3.org/2000/svg" viewBox="0 0 32 27"><path class="x" d="M19.71,16.75a1,1,0,0,1-1.42,0L16,14.46l-2.29,2.29a1,1,0,0,1-.71.3,1,1,0,0,1-.71-.3,1,1,0,0,1,0-1.41l2.3-2.29-2.3-2.3a1,1,0,0,1,0-1.41,1,1,0,0,1,1.42,0L16,11.63l2.29-2.29a1,1,0,0,1,1.42,0,1,1,0,0,1,0,1.41l-2.3,2.3,2.3,2.29A1,1,0,0,1,19.71,16.75Z"/><path d="M7,20a1,1,0,0,0-1-1H5a3,3,0,0,1-.56-5.94,1,1,0,0,0,.65-.44,1,1,0,0,0,.13-.78A8.4,8.4,0,0,1,5,10,8,8,0,0,1,19.35,5.14a1,1,0,0,0,1.15.33,7,7,0,0,1,5.13,13,1,1,0,1,0,.75,1.85A9,9,0,0,0,23,3a8.75,8.75,0,0,0-2.53.37A9.9,9.9,0,0,0,13,0,10,10,0,0,0,3,10a9.25,9.25,0,0,0,.1,1.38A5,5,0,0,0,5,21H6A1,1,0,0,0,7,20Zm9,7a1,1,0,0,1-.45-.11l-6-3a1,1,0,1,1,.9-1.78L16,24.88l5.55-2.77a1,1,0,1,1,.9,1.78l-6,3A1,1,0,0,1,16,27Zm0-4a1,1,0,0,1-.45-.11l-4-2a1,1,0,1,1,.9-1.78L16,20.88l3.55-1.77a1,1,0,1,1,.9,1.78l-4,2A1,1,0,0,1,16,23Z"/></svg>