<svg xmlns="http://www.w3.org/2000/svg" viewBox="-13010 -321 124.7 90.8">
  <g id="Group_6560" transform="translate(-13010 -321)">
    <path id="Path_4232" fill="#51bb7b" d="M57,67a2.006,2.006,0,0,0,2-2V53H71a2,2,0,0,0,0-4H59V37a2,2,0,0,0-4,0V49H43a2,2,0,0,0,0,4H55V65A2.006,2.006,0,0,0,57,67Z"/>
    <path id="Path_4233" fill="#51bb7b" d="M112,28a2.006,2.006,0,0,0,2-2V24h0V4a4.012,4.012,0,0,0-4-4H4A4.012,4.012,0,0,0,0,4V24H0v2a2,2,0,0,0,4,0H110A2.006,2.006,0,0,0,112,28ZM4,22V4H110V22Z"/>
    <path id="Path_4234" fill="#51bb7b" d="M114,34a2,2,0,0,0-4,0v4a2,2,0,0,0,4,0Z"/>
    <path id="Path_4235" fill="#51bb7b" d="M2,32a2.006,2.006,0,0,0-2,2v4a2,2,0,0,0,4,0V34A2.006,2.006,0,0,0,2,32Z"/>
    <path id="Path_4236" fill="#51bb7b" d="M83,76H79a2,2,0,0,0,0,4h4a2,2,0,0,0,0-4Z"/>
    <path id="Path_4237" fill="#51bb7b" d="M2,44a2.006,2.006,0,0,0-2,2v4a2,2,0,0,0,4,0V46A2.006,2.006,0,0,0,2,44Z"/>
    <path id="Path_4238" fill="#51bb7b" d="M2,68.1a2.006,2.006,0,0,0-2,2v4a2,2,0,0,0,4,0v-4A2.006,2.006,0,0,0,2,68.1Z"/>
    <path id="Path_4239" fill="#51bb7b" d="M2,56.1a2.006,2.006,0,0,0-2,2v4a2,2,0,1,0,4,0v-4A1.944,1.944,0,0,0,2,56.1Z"/>
    <path id="Path_4240" fill="#51bb7b" d="M10.9,76h-4a2,2,0,0,0,0,4h4a2.006,2.006,0,0,0,2-2A1.944,1.944,0,0,0,10.9,76Z"/>
    <path id="Path_4241" fill="#51bb7b" d="M35,76H31a2,2,0,0,0,0,4h4a2,2,0,0,0,0-4Z"/>
    <path id="Path_4242" fill="#51bb7b" d="M23,76H19a2,2,0,0,0,0,4h4a2,2,0,0,0,0-4Z"/>
    <path id="Path_4243" fill="#51bb7b" d="M59,76H55a2,2,0,0,0,0,4h4a2,2,0,0,0,0-4Z"/>
    <path id="Path_4244" fill="#51bb7b" d="M112,44a2.006,2.006,0,0,0-2,2v4a2,2,0,0,0,4,0V46A2.006,2.006,0,0,0,112,44Z"/>
    <path id="Path_4245" fill="#51bb7b" d="M47,76H43a2,2,0,0,0,0,4h4a2,2,0,0,0,0-4Z"/>
    <path id="Path_4246" fill="#51bb7b" d="M71,76H67a2,2,0,0,0,0,4h4a2,2,0,0,0,0-4Z"/>
    <circle id="Ellipse_3401" fill="#51bb7b" cx="3" cy="3" r="3" transform="translate(10 10)"/>
    <circle id="Ellipse_3402" fill="#51bb7b" cx="3" cy="3" r="3" transform="translate(20 10)"/>
    <circle id="Ellipse_3403" fill="#51bb7b" cx="3" cy="3" r="3" transform="translate(30 10)"/>
    <path id="Path_4247" fill="#51bb7b" d="M124.1,81.7l-6.9-6.9,4.6-3.6a2.073,2.073,0,0,0,.7-2.1,1.913,1.913,0,0,0-1.6-1.5l-20.5-3.5a2.107,2.107,0,0,0-1.8.6,2.016,2.016,0,0,0-.6,1.8L101.5,87a1.913,1.913,0,0,0,1.5,1.6,2.073,2.073,0,0,0,2.1-.7l3.6-4.6,6.9,6.9a1.933,1.933,0,0,0,2.8,0l5.7-5.7A1.933,1.933,0,0,0,124.1,81.7Zm-7,4.2L110,78.8a1.974,1.974,0,0,0-1.4-.6h-.1a1.9,1.9,0,0,0-1.5.8l-2.2,2.8-2.3-13.3,13.3,2.3L113,73a2.239,2.239,0,0,0-.8,1.5,2.035,2.035,0,0,0,.6,1.5l7.1,7.1Z"/>
  </g>
</svg>
