<svg xmlns="http://www.w3.org/2000/svg" viewBox="0 0 32 32"><path d="M32 12a9 9 0 0 1-5.62 8.35 1 1 0 0 1-.75-1.85 7 7 0 0 0-5.13-13 1 1 0 0 1-1.15-.33A8 8 0 0 0 5 10a8 8 0 0 0 .22 1.85 1 1 0 0 1-.79 1.21A3 3 0 0 0 5 19h1a1 1 0 0 1 0 2H5a5 5 0 0 1-1.9-9.62A9.68 9.68 0 0 1 3 10a10 10 0 0 1 17.47-6.63A8.9 8.9 0 0 1 23 3a9 9 0 0 1 9 9zm-9.11 10.55a1 1 0 0 1-.09 1l-6 8a1 1 0 0 1-1.6 0l-6-8A1 1 0 0 1 10 22h2.72L12 19.24A1 1 0 0 1 13 18h6a1 1 0 0 1 1 1.24L19.28 22H22a1 1 0 0 1 .89.55zM20 24h-2a1 1 0 0 1-1-1.24l.72-2.76h-3.44l.72 2.76A1 1 0 0 1 14 24h-2l4 5.33zm-9-9a1 1 0 0 0 1 1h8a1 1 0 0 0 0-2h-8a1 1 0 0 0-1 1zm7-3a1 1 0 0 0 0-2h-4a1 1 0 0 0 0 2z"/></svg>