<svg xmlns="http://www.w3.org/2000/svg" viewBox="0 0 39.605 33.977">
  <path d="M23,26H21a2.946,2.946,0,0,1-3-3v-.4a2.106,2.106,0,0,1,.5-1.3A2.226,2.226,0,0,0,19,20a2.127,2.127,0,0,0-.7-1.5,2.09,2.09,0,0,0-1.7-.4A1.91,1.91,0,0,0,15,19.7a2.155,2.155,0,0,0,.5,1.7,2.106,2.106,0,0,1,.5,1.3V23a2.946,2.946,0,0,1-3,3H11a2.946,2.946,0,0,1-3-3V19H6.6A4,4,0,0,1,4,20,4.1,4.1,0,0,1,.9,18.6,3.932,3.932,0,0,1,0,15.3a4.058,4.058,0,0,1,3.2-3.2,3.932,3.932,0,0,1,3.3.9H8V11a2.946,2.946,0,0,1,3-3h3V6.6A4,4,0,0,1,13,4,4.1,4.1,0,0,1,14.4.9,3.932,3.932,0,0,1,17.7,0a4.058,4.058,0,0,1,3.2,3.2A3.932,3.932,0,0,1,20,6.5V8h3a2.946,2.946,0,0,1,3,3v2h1.4a3.932,3.932,0,0,1,3.3-.9h0A3.971,3.971,0,0,1,33,18.6,3.749,3.749,0,0,1,30,20a4,4,0,0,1-2.6-1H26v4A2.946,2.946,0,0,1,23,26ZM17,16a3.893,3.893,0,0,1,4,4,4,4,0,0,1-1,2.6V23a.945.945,0,0,0,1,1h2a.945.945,0,0,0,1-1V19a2.006,2.006,0,0,1,2-2h1.4a2.106,2.106,0,0,1,1.3.5A2.226,2.226,0,0,0,30,18a2.127,2.127,0,0,0,1.5-.7,2.007,2.007,0,0,0,.4-1.7A1.91,1.91,0,0,0,30.3,14h0a2.155,2.155,0,0,0-1.7.5,2.106,2.106,0,0,1-1.3.5H26a2.006,2.006,0,0,1-2-2V11a.945.945,0,0,0-1-1H20a2.006,2.006,0,0,1-2-2V6.6a2.106,2.106,0,0,1,.5-1.3A2.155,2.155,0,0,0,19,3.6,1.91,1.91,0,0,0,17.4,2a2.09,2.09,0,0,0-1.7.4A2.575,2.575,0,0,0,15,4a2.226,2.226,0,0,0,.5,1.3A2.106,2.106,0,0,1,16,6.6V8a2.006,2.006,0,0,1-2,2H11a.945.945,0,0,0-1,1v2a2.006,2.006,0,0,1-2,2H6.6a2.106,2.106,0,0,1-1.3-.5A2.155,2.155,0,0,0,3.6,14,1.91,1.91,0,0,0,2,15.6a2.09,2.09,0,0,0,.4,1.7A2.36,2.36,0,0,0,4,18a2.226,2.226,0,0,0,1.3-.5A2.106,2.106,0,0,1,6.6,17H8a2.006,2.006,0,0,1,2,2v4a.945.945,0,0,0,1,1h2a.945.945,0,0,0,1-1v-.4a3.971,3.971,0,0,1,2.3-6.5A1.7,1.7,0,0,1,17,16Z" transform="matrix(0.966, 0.259, -0.259, 0.966, 6.787, 0.073)"/>
</svg>
