<svg width="29" height="23" viewBox="0 0 29 23" fill="none" xmlns="http://www.w3.org/2000/svg">
	<path fill-rule="evenodd" clip-rule="evenodd" d="M20.9706 0.134276C21.4488 0.410664 21.6123 1.02234 21.3359 1.50049L19.3359 4.96049C19.0595 5.43864 18.4479 5.6022 17.9697 5.32581C17.4916 5.04943 17.328 4.43775 17.6044 3.9596L19.6044 0.4996C19.8808 0.0214492 20.4925 -0.142112 20.9706 0.134276ZM10.79 6.01778C11.4421 5.69359 12.1274 5.89721 12.5862 6.12059C13.1042 6.37281 13.6342 6.78866 14.1445 7.28232C15.1751 8.27949 16.2979 9.76373 17.2973 11.4947C18.2967 13.2257 19.0207 14.9402 19.3689 16.3314C19.5413 17.0201 19.6365 17.687 19.5959 18.2617C19.5583 18.7944 19.3779 19.5311 18.6992 19.9229C18.3953 20.0984 18.0814 20.1527 17.7844 20.1383L3.77151 22.5553C3.7713 22.5553 3.77172 22.5552 3.77151 22.5553C1.01087 23.0348 -0.830699 19.822 0.951506 17.6804L10.0677 6.72755C10.191 6.49574 10.3678 6.28047 10.6198 6.1154C10.6737 6.07694 10.7308 6.04437 10.79 6.01778ZM10.0774 9.84227L5.74214 15.0509C6.20161 16.2142 7.06577 17.974 8.56386 19.6991L15.1141 18.5693C14.1224 17.5756 13.0555 16.1477 12.1012 14.4947C11.1454 12.8394 10.4416 11.1991 10.0774 9.84227ZM17.6049 18.0275C17.61 17.7489 17.5607 17.3442 17.4288 16.8171C17.1372 15.6522 16.4989 14.1118 15.5653 12.4947C14.6317 10.8777 13.6168 9.55466 12.7538 8.71968C12.3633 8.34185 12.0374 8.0968 11.7936 7.96195C11.7885 8.24052 11.8377 8.64527 11.9697 9.17237C12.2613 10.3372 12.8996 11.8777 13.8332 13.4947C14.7668 15.1118 15.7817 16.4348 16.6447 17.2698C17.0352 17.6476 17.3611 17.8926 17.6049 18.0275ZM6.30582 20.0886C5.40623 18.9012 4.76076 17.7428 4.30804 16.774L2.48883 18.9597C1.89117 19.6779 2.50982 20.7447 3.42883 20.5848L6.30582 20.0886ZM21.8354 8.86869C22.1123 9.34655 21.9494 9.9584 21.4715 10.2353L20.4015 10.8553C19.9237 11.1322 19.3118 10.9693 19.0349 10.4914C18.758 10.0135 18.921 9.40169 19.3988 9.1248L20.4688 8.5048C20.9467 8.22791 21.5585 8.39083 21.8354 8.86869ZM22.9702 13.99C22.9702 13.4378 23.4179 12.99 23.9702 12.99H27.9702C28.5225 12.99 28.9702 13.4378 28.9702 13.99C28.9702 14.5423 28.5225 14.99 27.9702 14.99H23.9702C23.4179 14.99 22.9702 14.5423 22.9702 13.99ZM11.8986 16.6187C12.1038 17.1314 11.8543 17.7134 11.3416 17.9185L10.3416 18.3185C9.82877 18.5236 9.24681 18.2742 9.04169 17.7614C8.83658 17.2486 9.08599 16.6667 9.59878 16.4616L10.5988 16.0616C11.1116 15.8565 11.6935 16.1059 11.8986 16.6187Z" fill="black" />
</svg>
