<svg width="21" height="17" viewBox="0 0 21 17" fill="none" xmlns="http://www.w3.org/2000/svg">
    <path fill-rule="evenodd" clip-rule="evenodd" d="M6.48562 1C6.48562 0.447715 6.93333 0 7.48562 0H13.4856C14.0379 0 14.4856 0.447715 14.4856 1C14.4856 1.55228 14.0379 2 13.4856 2H11.4856V3.04155C14.3811 3.28702 16.4331 4.59352 17.7437 6.2449C19.165 8.03582 19.7024 10.2195 19.5265 11.8046C19.5199 11.8638 19.5269 11.89 19.5278 11.8931L20.3074 13.7122C20.873 15.0319 19.9049 16.5 18.4691 16.5H10.4856C10.3993 16.5 10.3155 16.4891 10.2356 16.4685C10.1557 16.4891 10.0719 16.5 9.98561 16.5H2.00215C0.566323 16.5 -0.401737 15.0319 0.163864 13.7122L0.943448 11.8931C0.944321 11.89 0.951316 11.8638 0.944743 11.8046C0.768846 10.2195 1.30625 8.03582 2.72758 6.2449C4.11238 4.50001 6.32492 3.14017 9.48561 3.01018V2H7.48562C6.93333 2 6.48562 1.55228 6.48562 1ZM9.98561 5C7.16782 5 5.37186 6.13028 4.29417 7.4882C3.37212 8.65001 2.96489 9.99086 2.91724 11.0023C2.93983 11.0008 2.96263 11 2.98562 11H17.5539C17.5057 9.98882 17.0984 8.64913 16.1771 7.4882C15.0994 6.13028 13.3034 5 10.4856 5H9.98561ZM17.8262 13H2.98562C2.87429 13 2.76721 12.9818 2.6672 12.9482L2.00215 14.5H9.98561C10.0719 14.5 10.1557 14.5109 10.2356 14.5315C10.3155 14.5109 10.3993 14.5 10.4856 14.5L18.4691 14.5L17.8262 13Z" fill="#51BB7B"/>
</svg>
