<svg width="20" height="21" viewBox="0 0 20 21" fill="none" xmlns="http://www.w3.org/2000/svg">
    <path fill-rule="evenodd" clip-rule="evenodd" d="M14.3001 1.60006C14.6314 1.15823 14.5419 0.53143 14.1001 0.200059C13.6582 -0.131312 13.0314 -0.0417689 12.7001 0.400059L11.6192 1.84126C11.1241 1.62188 10.5763 1.5 10 1.5C9.42369 1.5 8.87585 1.62188 8.38085 1.84126L7.29994 0.400059C6.96857 -0.0417689 6.34177 -0.131312 5.89994 0.200059C5.45811 0.53143 5.36857 1.15823 5.69994 1.60006L6.81235 3.08326C6.30255 3.75464 6 4.59199 6 5.5C6 5.99168 6.11828 6.45573 6.32794 6.86525C5.7608 7.12662 5.26526 7.51683 4.87883 7.99835C3.77115 7.96719 3.06611 7.48079 2.62309 6.85787C2.13673 6.17402 1.94814 5.29148 2.01186 4.59048C2.06186 4.04046 1.65652 3.55405 1.10651 3.50405C0.556489 3.45405 0.0700781 3.85939 0.0200765 4.40941C-0.082863 5.54174 0.205365 6.9092 0.993251 8.01702C1.66217 8.95756 2.67855 9.68826 4.04161 9.92139C4.0142 10.1104 4 10.3038 4 10.5004L4 13.25C4 13.5323 4.05667 14.0035 4.22213 14.5509C2.76797 14.7483 1.69137 15.5014 0.993252 16.483C0.205366 17.5908 -0.0828626 18.9583 0.0200767 20.0906C0.0700781 20.6406 0.556489 21.046 1.10651 20.996C1.65652 20.9459 2.06186 20.4595 2.01186 19.9095C1.94814 19.2085 2.13673 18.326 2.62309 17.6421C3.0811 16.9981 3.81915 16.5001 4.99262 16.5001C5.07198 16.5001 5.14918 16.4908 5.2232 16.4733C6.10429 17.5703 7.57886 18.5 10 18.5C12.6115 18.5 14.1217 17.6151 14.9738 16.4997C14.9825 16.4999 14.9913 16.5001 15.0001 16.5001C16.1735 16.5001 16.9116 16.9981 17.3696 17.6421C17.8559 18.326 18.0445 19.2085 17.9808 19.9095C17.9308 20.4595 18.3362 20.9459 18.8862 20.996C19.4362 21.046 19.9226 20.6406 19.9726 20.0906C20.0755 18.9583 19.7873 17.5908 18.9994 16.483C18.3149 15.5205 17.2666 14.7778 15.8552 14.5631C15.9615 14.09 16 13.6379 16 13.25V10.5C16 10.3031 15.9858 10.1095 15.9583 9.92015C17.3177 9.68569 18.3317 8.9559 18.9994 8.01702C19.7873 6.9092 20.0755 5.54174 19.9726 4.40941C19.9226 3.85939 19.4362 3.45405 18.8862 3.50405C18.3362 3.55405 17.9308 4.04046 17.9808 4.59048C18.0445 5.29148 17.8559 6.17402 17.3696 6.85787C16.9275 7.47941 16.2246 7.96504 15.1212 7.99814C14.7348 7.51667 14.2392 7.12652 13.6721 6.86519C13.8817 6.45568 14 5.99165 14 5.5C14 4.59199 13.6974 3.75464 13.1877 3.08327L14.3001 1.60006ZM12 5.5C12 6.05228 11.5523 6.5 11 6.5H9C8.44771 6.5 8 6.05228 8 5.5C8 4.39543 8.89543 3.5 10 3.5C11.1046 3.5 12 4.39543 12 5.5ZM8 8.5H9V16.4242C7.75095 16.2207 7.08876 15.6419 6.69826 15.1114C6.1283 14.337 6 13.4582 6 13.25L6 10.5004C6 9.39557 6.89569 8.5 8 8.5ZM11 16.4414C12.3657 16.2691 13.0136 15.7502 13.3508 15.3287C13.8302 14.7294 14 13.9231 14 13.25V10.5C14 9.39543 13.1046 8.5 12 8.5H11V16.4414Z" fill="#51BB7B"/>
</svg>
    