<svg width="8" height="8" viewBox="0 0 8 8" fill="none" xmlns="http://www.w3.org/2000/svg">
	<path d="M3.752 0.014 C 3.204 0.046,2.674 0.192,2.174 0.447 C 1.787 0.645,1.511 0.848,1.180 1.180 C 0.828 1.531,0.631 1.804,0.420 2.233 C 0.134 2.815,0.011 3.347,0.011 4.000 C 0.011 4.653,0.134 5.185,0.420 5.767 C 0.631 6.196,0.828 6.469,1.180 6.820 C 1.531 7.172,1.800 7.366,2.233 7.580 C 2.812 7.865,3.345 7.989,4.000 7.989 C 4.655 7.989,5.188 7.865,5.767 7.580 C 6.200 7.366,6.469 7.172,6.820 6.820 C 7.172 6.469,7.366 6.200,7.580 5.767 C 7.865 5.188,7.989 4.655,7.989 4.000 C 7.989 3.345,7.865 2.812,7.580 2.233 C 7.366 1.800,7.172 1.531,6.820 1.180 C 6.469 0.828,6.196 0.631,5.767 0.420 C 5.525 0.301,5.379 0.243,5.133 0.169 C 4.719 0.043,4.212 -0.014,3.752 0.014 M4.294 2.019 C 4.740 2.092,5.103 2.277,5.413 2.587 C 5.797 2.970,6.000 3.459,6.000 4.000 C 6.000 4.541,5.797 5.030,5.413 5.413 C 5.030 5.797,4.541 6.000,4.000 6.000 C 3.459 6.000,2.970 5.797,2.587 5.413 C 2.203 5.030,2.000 4.541,2.000 4.000 C 2.000 3.462,2.200 2.977,2.577 2.597 C 2.888 2.283,3.251 2.096,3.693 2.020 C 3.830 1.997,4.155 1.996,4.294 2.019 " fill-rule="evenodd"></path>
</svg>
