<svg width="12" height="13" viewBox="0 0 12 13" fill="none" xmlns="http://www.w3.org/2000/svg">
    <path d="M11.7 10.7291L7.4 6.5L11.7 2.27094C12.1 1.87754 12.1 1.28745 11.7 0.894049C11.3 0.500649 10.7 0.500649 10.3 0.894049L6 5.1231L1.7 0.894049C1.3 0.500649 0.7 0.500649 0.3 0.894049C-0.1 1.28745 -0.1 1.87754 0.3 2.27094L4.6 6.5L0.3 10.7291C-0.1 11.1225 -0.1 11.7125 0.3 12.1059C0.5 12.3026 0.8 12.401 1 12.401C1.2 12.401 1.5 12.3026 1.7 12.1059L6 7.8769L10.3 12.1059C10.5 12.3026 10.8 12.401 11 12.401C11.2 12.401 11.5 12.3026 11.7 12.1059C12.1 11.7125 12.1 11.1225 11.7 10.7291Z" fill="#262727"/>
</svg>
    