<svg width="24" height="18" viewBox="0 0 24 18" fill="none" xmlns="http://www.w3.org/2000/svg">
	<path d="M10.347.043C8.612.167 6.845.948 5.536 2.169 4.358 3.267 3.513 4.781 3.178 6.39c-.093.451-.193 1.543-.169 1.864l.011.154-.34.179A5.113 5.113 0 0 0 .306 11.31a5.137 5.137 0 0 0 .072 3.554 4.986 4.986 0 0 0 2.757 2.757c.483.195.912.29 1.545.344.636.053 1.555.026 1.773-.053.342-.123.52-.436.52-.912 0-.475-.177-.787-.52-.913-.105-.039-.453-.065-1.113-.085-.899-.027-.98-.036-1.28-.138a3.026 3.026 0 0 1-1.397-.98c-.45-.562-.623-1.02-.654-1.728-.033-.772.157-1.386.615-1.983a3.048 3.048 0 0 1 1.616-1.076c.679-.182.87-.425.825-1.047-.095-1.296-.076-1.748.101-2.47A6.01 6.01 0 0 1 9.58 2.166c.579-.142.973-.179 1.646-.154 1.191.044 2.101.334 3.074.978.887.588 1.525 1.301 2.061 2.303.302.567.457.671 1.079.728a4.973 4.973 0 0 1 2.984 1.35 4.997 4.997 0 0 1 1.519 2.829c.096.549.061 1.478-.075 2.003-.248.952-.669 1.676-1.393 2.392-.716.709-1.437 1.079-2.654 1.362-.415.097-.594.215-.731.484-.211.413-.02 1.128.363 1.361.213.13.444.14.927.043a6.974 6.974 0 0 0 5.458-5.432 7.495 7.495 0 0 0-.079-3.173c-.638-2.498-2.749-4.527-5.244-5.039a5.755 5.755 0 0 1-.498-.119c-.046-.019-.157-.157-.246-.308-1.064-1.785-3.119-3.207-5.218-3.61-.371-.071-1.46-.173-1.693-.158l-.513.037M11.76 8.04c-.264.047-.373.098-.502.236-.245.259-.236.124-.249 3.634-.007 1.765-.021 3.21-.031 3.21-.011 0-.372-.235-.803-.523-.87-.582-1.022-.654-1.308-.622-.258.029-.442.151-.645.427-.202.274-.282.526-.245.773.051.34.159.433 1.692 1.458.787.527 1.501 1.021 1.586 1.098.405.365 1.08.353 1.524-.028.101-.086.817-.581 1.591-1.1 1.541-1.031 1.611-1.094 1.656-1.47.021-.177.007-.244-.098-.468-.207-.444-.537-.704-.893-.705-.207 0-.439.122-1.21.637a21.27 21.27 0 0 1-.803.523c-.01 0-.024-1.445-.031-3.21-.013-3.535-.002-3.381-.263-3.648-.185-.189-.61-.286-.968-.222" fill-rule="evenodd" fill="#000" />
</svg>
