<svg width="24" height="18" viewBox="0 0 24 18" fill="none" xmlns="http://www.w3.org/2000/svg">
	<path d="M10.347.043C8.612.167 6.845.948 5.536 2.169 4.358 3.267 3.513 4.781 3.178 6.39c-.093.451-.193 1.543-.169 1.864l.011.154-.34.179A5.113 5.113 0 0 0 .306 11.31a5.137 5.137 0 0 0 .072 3.554 4.986 4.986 0 0 0 2.757 2.757c.483.195.912.29 1.545.344.636.053 1.555.026 1.773-.053.342-.123.52-.436.52-.912 0-.475-.177-.787-.52-.913-.105-.039-.453-.065-1.113-.085-.899-.027-.98-.036-1.28-.138a3.026 3.026 0 0 1-1.397-.98c-.45-.562-.623-1.02-.654-1.728-.033-.772.157-1.386.615-1.983a3.048 3.048 0 0 1 1.616-1.076c.679-.182.87-.425.825-1.047-.095-1.296-.076-1.748.101-2.47A6.01 6.01 0 0 1 9.58 2.166c.579-.142.973-.179 1.646-.154 1.191.044 2.101.334 3.074.978.887.588 1.525 1.301 2.061 2.303.302.567.457.671 1.079.728a4.973 4.973 0 0 1 2.984 1.35 4.997 4.997 0 0 1 1.519 2.829c.096.549.061 1.478-.075 2.003-.248.952-.669 1.676-1.393 2.392-.716.709-1.437 1.079-2.654 1.362-.415.097-.594.215-.731.484-.211.413-.02 1.128.363 1.361.213.13.444.14.927.043a6.974 6.974 0 0 0 5.458-5.432 7.495 7.495 0 0 0-.079-3.173c-.638-2.498-2.749-4.527-5.244-5.039a5.755 5.755 0 0 1-.498-.119c-.046-.019-.157-.157-.246-.308-1.064-1.785-3.119-3.207-5.218-3.61-.371-.071-1.46-.173-1.693-.158l-.513.037m1.245 8.029a1.216 1.216 0 0 0-.34.204c-.084.075-.795.565-1.582 1.09-1.496.999-1.637 1.117-1.694 1.423-.04.212.049.526.219.771.2.289.41.435.671.466.278.033.46-.055 1.365-.66.4-.267.736-.486.747-.486.01 0 .024 1.445.031 3.21.013 3.535.002 3.381.263 3.648.312.319 1.144.319 1.456 0 .261-.267.25-.113.263-3.648.007-1.765.02-3.21.03-3.21.009 0 .382.241.828.537.446.295.886.558.977.585a.815.815 0 0 0 .684-.119c.323-.234.575-.769.515-1.092-.058-.308-.198-.425-1.698-1.426-.788-.526-1.502-1.019-1.586-1.096-.278-.255-.762-.338-1.149-.197" fill-rule="evenodd" fill="#000" />
</svg>
