<svg xmlns="http://www.w3.org/2000/svg" viewBox="-1035 -143 32 27"><defs><style>.a{fill:#c7c4c4;}.b{fill:none;stroke:#ef4e65;stroke-linecap:round;stroke-linejoin:round;stroke-miterlimit:10;stroke-width:2px;}</style></defs><g transform="translate(-1619 -637)"><path class="a" d="M6,21H5a4.985,4.985,0,0,1-1.9-9.6A6.6,6.6,0,0,1,3,10,10.029,10.029,0,0,1,13,0a9.806,9.806,0,0,1,7.5,3.4A6.9,6.9,0,0,1,23,3a8.963,8.963,0,0,1,9,9,8.811,8.811,0,0,1-5.6,8.3.961.961,0,0,1-1.3-.6.932.932,0,0,1,.6-1.3A7,7,0,0,0,23.1,4.9a7.418,7.418,0,0,0-2.5.5,1.1,1.1,0,0,1-1.2-.3A8.051,8.051,0,0,0,5,10a11.019,11.019,0,0,0,.2,1.8,1.128,1.128,0,0,1-.1.8c-.1.3-.4.4-.7.5A2.908,2.908,0,0,0,2,16a2.946,2.946,0,0,0,3,3H6a1,1,0,0,1,0,2Zm6,0,4.4,5.9,6-3a.962.962,0,0,0-.9-1.7L16,24.9l-5.6-2.8a.962.962,0,1,0-.9,1.7l6,3a.551.551,0,0,0,.5.2C16.2,27,16.3,27,16.4,26.9Zm0-4,4-2a.962.962,0,0,0-.9-1.7L16,20.9l-3.6-1.8a.962.962,0,1,0-.9,1.7l4,2A1,1,0,0,0,16.4,22.9Z" transform="translate(584 494)"/><g transform="translate(596 503)"><line class="b" x2="6" y2="6" transform="translate(1 1)"/><line class="b" x1="6" y2="6" transform="translate(1 1)"/></g></g></svg>