<!-- Generator: Adobe Illustrator 21.1.0, SVG Export Plug-In  -->
<svg version="1.1"
	 xmlns="http://www.w3.org/2000/svg" xmlns:xlink="http://www.w3.org/1999/xlink" xmlns:a="http://ns.adobe.com/AdobeSVGViewerExtensions/3.0/"
	 x="0px" y="0px" width="32px" height="27px" viewBox="0 0 32 27" style="enable-background:new 0 0 32 27;" xml:space="preserve">
<g>
	<path class="st0" d="M6,21H5c-2.8,0-5-2.2-5-5c0-2.1,1.3-3.9,3.1-4.6C3,10.9,3,10.5,3,10C3,4.5,7.5,0,13,0c2.9,0,5.6,1.2,7.5,3.4
		C21.3,3.1,22.1,3,23,3c5,0,9,4,9,9c0,3.7-2.2,7-5.6,8.3c-0.5,0.2-1.1,0-1.3-0.6c-0.2-0.5,0-1.1,0.6-1.3c2.7-1.1,4.4-3.6,4.4-6.5
		c0-3.9-3.1-7-7-7c-0.8,0-1.7,0.2-2.5,0.5c-0.4,0.2-0.9,0-1.2-0.3C17.8,3.1,15.5,2,13,2c-4.4,0-8,3.6-8,8c0,0.6,0.1,1.2,0.2,1.8
		c0.1,0.3,0,0.5-0.1,0.8S4.7,13,4.4,13.1C3,13.3,2,14.6,2,16c0,1.7,1.3,3,3,3h1c0.6,0,1,0.4,1,1S6.6,21,6,21z"/>
</g>
<g>
	<path class="st0" d="M12,21"/>
</g>
<g>
	<path class="st0" d="M16,27c-0.2,0-0.3,0-0.4-0.1l-6-3c-0.5-0.2-0.7-0.8-0.4-1.3c0.2-0.5,0.8-0.7,1.3-0.4l5.6,2.8l5.6-2.8
		c0.5-0.2,1.1,0,1.3,0.4c0.2,0.5,0,1.1-0.4,1.3l-6,3C16.3,27,16.2,27,16,27z"/>
</g>
<g>
	<path class="st0" d="M16,14.5c-0.4,0-0.8-0.2-1.1-0.4c-0.1-0.1-0.1-0.2-0.2-0.2c0-0.1-0.1-0.2-0.1-0.3c0-0.1-0.1-0.2-0.1-0.3
		c0-0.1,0-0.2,0-0.3c0-0.1,0-0.2,0-0.3c0-0.1,0-0.2,0.1-0.3c0-0.1,0.1-0.2,0.1-0.3c0.1-0.1,0.1-0.2,0.2-0.2c0.1-0.1,0.1-0.1,0.2-0.2
		c0.1-0.1,0.2-0.1,0.3-0.1c0.1,0,0.2-0.1,0.3-0.1c0.2,0,0.4,0,0.6,0c0.1,0,0.2,0,0.3,0.1c0.1,0,0.2,0.1,0.3,0.1
		c0.1,0.1,0.2,0.1,0.2,0.2c0.1,0.1,0.1,0.1,0.2,0.2c0,0.1,0.1,0.2,0.1,0.3c0,0.1,0.1,0.2,0.1,0.3c0,0.1,0,0.2,0,0.3
		c0,0.1,0,0.2,0,0.3c0,0.1,0,0.2-0.1,0.3c0,0.1-0.1,0.2-0.1,0.3c-0.1,0.1-0.1,0.2-0.2,0.2C16.8,14.3,16.4,14.5,16,14.5z"/>
</g>
<g>
	<path class="st0" d="M16,23c-0.2,0-0.3,0-0.4-0.1l-4-2c-0.5-0.2-0.7-0.8-0.4-1.3c0.2-0.5,0.8-0.7,1.3-0.4l3.6,1.8l3.6-1.8
		c0.5-0.2,1.1,0,1.3,0.4c0.2,0.5,0,1.1-0.4,1.3l-4,2C16.3,23,16.2,23,16,23z"/>
</g>
<g>
	<path class="st0" d="M16,19c-0.2,0-0.3,0-0.4-0.1l-2-1c-0.5-0.2-0.7-0.8-0.4-1.3c0.2-0.5,0.8-0.7,1.3-0.4l1.6,0.8l1.6-0.8
		c0.5-0.2,1.1,0,1.3,0.4c0.2,0.5,0,1.1-0.4,1.3l-2,1C16.3,19,16.2,19,16,19z"/>
</g>
</svg>
