<svg width="9" height="15" viewBox="0 0 9 15" fill="none" xmlns="http://www.w3.org/2000/svg">
	<path fill-rule="evenodd" clip-rule="evenodd"
		d="M0.645218 0.513246C0.369118 0.518066 0.149201 0.745796 0.15402 1.0219L0.171473 2.02174C0.176292 2.29784 0.404023 2.51776 0.680123 2.51294L1.67997 2.49549C1.95607 2.49067 2.17599 2.26294 2.17117 1.98684L2.15372 0.986992C2.1489 0.710891 1.92117 0.490975 1.64507 0.495794L0.645218 0.513246ZM0.749932 6.51233C0.473832 6.51715 0.253915 6.74488 0.258735 7.02098L0.276187 8.02083C0.281007 8.29693 0.508737 8.51685 0.784837 8.51203L1.78469 8.49458C2.06079 8.48976 2.2807 8.26203 2.27588 7.98593L2.25843 6.98608C2.25361 6.70998 2.02588 6.49006 1.74978 6.49488L0.749932 6.51233ZM0.363449 13.0201C0.35863 12.744 0.578547 12.5162 0.854647 12.5114L1.85449 12.494C2.13059 12.4891 2.35833 12.7091 2.36314 12.9852L2.3806 13.985C2.38542 14.2611 2.1655 14.4888 1.8894 14.4937L0.889552 14.5111C0.613451 14.5159 0.385721 14.296 0.380902 14.0199L0.363449 13.0201ZM6.6443 0.408532C6.3682 0.413351 6.14829 0.641082 6.15311 0.917182L6.17056 1.91703C6.17538 2.19313 6.40311 2.41305 6.67921 2.40823L7.67906 2.39078C7.95516 2.38596 8.17507 2.15823 8.17025 1.88212L8.1528 0.882277C8.14798 0.606177 7.92025 0.38626 7.64415 0.39108L6.6443 0.408532ZM6.25782 6.91627C6.253 6.64017 6.47292 6.41244 6.74902 6.40762L7.74887 6.39017C8.02497 6.38535 8.2527 6.60526 8.25752 6.88136L8.27497 7.88121C8.27979 8.15731 8.05987 8.38504 7.78377 8.38986L6.78392 8.40731C6.50782 8.41213 6.28009 8.19222 6.27527 7.91612L6.25782 6.91627ZM6.85373 12.4067C6.57763 12.4115 6.35772 12.6393 6.36254 12.9154L6.37999 13.9152C6.38481 14.1913 6.61254 14.4112 6.88864 14.4064L7.88849 14.3889C8.16459 14.3841 8.3845 14.1564 8.37968 13.8803L8.36223 12.8804C8.35741 12.6043 8.12968 12.3844 7.85358 12.3893L6.85373 12.4067Z"
		fill="#262727" />
</svg>
