<svg width="15" height="15" viewBox="0 0 15 15" fill="none" xmlns="http://www.w3.org/2000/svg">
    <path d="M12.3339 9.4V9.5V10.5C12.3339 12.7 10.5339 14.5 8.33386 14.5H4.33386C2.13386 14.5 0.333862 12.7 0.333862 10.5V6.5C0.333862 4.3 2.13386 2.5 4.33386 2.5H5.33386C5.83386 2.5 6.33386 2.9 6.33386 3.4V3.5C6.33386 4 5.93386 4.5 5.43386 4.5H5.33386H4.33386C3.23386 4.5 2.33386 5.4 2.33386 6.5V10.5C2.33386 11.6 3.23386 12.5 4.33386 12.5H8.33386C9.43386 12.5 10.3339 11.6 10.3339 10.5V9.5C10.3339 9 10.7339 8.5 11.2339 8.5H11.3339C11.8339 8.5 12.3339 8.9 12.3339 9.4ZM13.4339 0.5H13.3339H8.33386C7.83386 0.5 7.33386 0.9 7.33386 1.4V1.5C7.33386 2 7.73386 2.5 8.23386 2.5H8.33386H11.0339L5.23386 8.2C4.83386 8.6 4.83386 9.2 5.23386 9.6C5.43386 9.8 5.63386 9.9 5.93386 9.9C6.23386 9.9 6.43386 9.8 6.63386 9.6L12.3339 4V6.5C12.3339 7.1 12.7339 7.5 13.3339 7.5C13.9339 7.5 14.3339 7.1 14.3339 6.5V1.5C14.3339 1 13.9339 0.5 13.4339 0.5Z" fill="#51BB7B"/>
</svg>
    