<svg xmlns="http://www.w3.org/2000/svg" viewBox="-11335 7155 24 18">
    <g transform="translate(-12285 6392)">
        <path d="M24,9a7,7,0,0,1-4.7,6.6,1.012,1.012,0,0,1-.7-1.9A4.978,4.978,0,0,0,17,4a2.2,2.2,0,0,0-.8.1c-.3.1-.6-.1-.9-.3A5.976,5.976,0,0,0,5.1,7.2a1.075,1.075,0,0,1-.8.9A2.9,2.9,0,0,0,2,11a2.946,2.946,0,0,0,3,3,1,1,0,0,1,0,2,4.951,4.951,0,0,1-5-5A4.879,4.879,0,0,1,3.2,6.4,7.935,7.935,0,0,1,11,0a7.757,7.757,0,0,1,5.3,2H17A6.957,6.957,0,0,1,24,9Zm-8.1,3.6a.92.92,0,0,1-.1,1l-3,4a1,1,0,0,1-1.6,0l-3-4a.92.92,0,0,1-.1-1A.961.961,0,0,1,9,12h6A.961.961,0,0,1,15.9,12.6ZM13,14H11l1,1.3ZM9,10a.945.945,0,0,0,1,1h4a.945.945,0,0,0,1-1,.945.945,0,0,0-1-1H10A.945.945,0,0,0,9,10Zm4-2a.945.945,0,0,0,1-1,.945.945,0,0,0-1-1H11a.945.945,0,0,0-1,1,.945.945,0,0,0,1,1Z" transform="translate(950 763)"/>
    </g>
</svg>