<svg xmlns="http://www.w3.org/2000/svg" width="15.8" height="12" viewBox="0 0 15.8 12">
  <g id="Group_17220" data-name="Group 17220" transform="translate(-419 -192)">
    <path id="Path_8353" data-name="Path 8353" d="M14,30.979H2a1,1,0,0,1-1-.9l-1-10a1,1,0,0,1,1-1.1H6a1,1,0,0,1,.895.553l.723,1.447H14.8a1,1,0,0,1,.995,1.1l-.8,8A1,1,0,0,1,14,30.979Zm-11.1-2H13.1l.6-6H7a1,1,0,0,1-.895-.552l-.723-1.448H2.105Z" transform="translate(419 173.021)" fill="#9f9c9c"/>
    <path id="Path_8354" data-name="Path 8354" d="M2.9,28.979H13.1l.6-6H7a1,1,0,0,1-.895-.552l-.723-1.448H2.105Z" transform="translate(419 173.021)" fill="#e7e7e7"/>
  </g>
</svg>
