<svg xmlns="http://www.w3.org/2000/svg" viewBox="-6651.001 10628 53.726 55.438"><path d="M37.6,54.5c-1,.4-2,.7-3,1a2.5,2.5,0,0,1-3-1.7,5.247,5.247,0,0,0-4.7-3.6,4.929,4.929,0,0,0-4.6,3.3A2.342,2.342,0,0,1,19.2,55a30.223,30.223,0,0,1-5.8-2.6,2.569,2.569,0,0,1-1-3.3,5.2,5.2,0,0,0-1-5.8A4.81,4.81,0,0,0,6,42.1H6A2.735,2.735,0,0,1,2.6,41,26.7,26.7,0,0,1,.2,34.9a2.388,2.388,0,0,1,1.5-3A5.16,5.16,0,0,0,5,27.2a5.126,5.126,0,0,0-3.3-4.9A2.546,2.546,0,0,1,.2,19.2a28.051,28.051,0,0,1,2.4-5.9,2.445,2.445,0,0,1,3.3-1,5,5,0,0,0,5.5-.8,5.22,5.22,0,0,0,1-5.7,2.609,2.609,0,0,1,1.1-3.3A24.2,24.2,0,0,1,19.3.2a2.5,2.5,0,0,1,3,1.7A5.247,5.247,0,0,0,27,5.5a4.929,4.929,0,0,0,4.6-3.3A2.342,2.342,0,0,1,34.7.7a27.176,27.176,0,0,1,5.8,2.6,2.569,2.569,0,0,1,1,3.3,5.2,5.2,0,0,0,1,5.8,4.81,4.81,0,0,0,5.4,1.2,2.894,2.894,0,0,1,3.4,1.1h0a26.7,26.7,0,0,1,2.4,6.1,2.47,2.47,0,0,1-1.6,3.1l-.3.1a4.948,4.948,0,0,0-3,4.6,5.127,5.127,0,0,0,3.3,4.9,2.546,2.546,0,0,1,1.5,3.1,28.051,28.051,0,0,1-2.4,5.9,2.445,2.445,0,0,1-3.3,1A4.872,4.872,0,0,0,41.3,50a2.609,2.609,0,0,1-1.1,3.3C39.5,53.6,38.5,54.1,37.6,54.5ZM24.4,48.7a7.418,7.418,0,0,1,2.5-.5,7.312,7.312,0,0,1,6.5,4.9.622.622,0,0,0,.6.4,27.432,27.432,0,0,0,5.4-2.1.574.574,0,0,0,.2-.7,7.184,7.184,0,0,1,1.4-8,6.976,6.976,0,0,1,7.9-1.2.481.481,0,0,0,.6-.2,26.328,26.328,0,0,0,2.2-5.5.61.61,0,0,0-.3-.7,7.274,7.274,0,0,1-4.6-6.8,7.1,7.1,0,0,1,4.3-6.5l.3-.1a.446.446,0,0,0,.3-.6,27.233,27.233,0,0,0-2.3-5.7.725.725,0,0,0-.8-.2A6.823,6.823,0,0,1,41,13.5a7.4,7.4,0,0,1-1.4-8,.574.574,0,0,0-.2-.7A26.138,26.138,0,0,0,34,2.4a.446.446,0,0,0-.6.3,6.915,6.915,0,0,1-6.6,4.6,7.312,7.312,0,0,1-6.5-4.9.622.622,0,0,0-.6-.4,22.542,22.542,0,0,0-5.3,2.1.574.574,0,0,0-.2.7,7.184,7.184,0,0,1-1.4,8A6.976,6.976,0,0,1,4.9,14a.481.481,0,0,0-.6.2,21.821,21.821,0,0,0-2.2,5.5.61.61,0,0,0,.3.7A7.425,7.425,0,0,1,7,27.2a7.109,7.109,0,0,1-4.6,6.6.625.625,0,0,0-.4.6,27.233,27.233,0,0,0,2.3,5.7c.1.2.6.3.9.2.1,0,.1,0,.2-.1A6.918,6.918,0,0,1,12.9,42a7.4,7.4,0,0,1,1.4,8,.574.574,0,0,0,.2.7,26.138,26.138,0,0,0,5.4,2.4.446.446,0,0,0,.6-.3A6.579,6.579,0,0,1,24.4,48.7Zm6.4-11.4a10.258,10.258,0,0,1-7.7-19,10.258,10.258,0,0,1,7.7,19Zm-7-17.1A8.263,8.263,0,0,0,30,35.5a8.1,8.1,0,0,0,4.2-10.6A8.014,8.014,0,0,0,23.8,20.2Z" transform="translate(-6651.088 10627.869)"/></svg>