<svg xmlns="http://www.w3.org/2000/svg" xmlns:xlink="http://www.w3.org/1999/xlink" viewBox="0 0 24 21.263">
  <defs>
    <style>
      .cls-1 {
        fill: #ef4e65;
      }

      .cls-2 {
        clip-path: url(#clip-path);
      }
    </style>
    <clipPath id="clip-path">
      <path id="Path_5339" class="cls-1" d="M0-21.263H24V0H0Z"/>
    </clipPath>
  </defs>
  <g id="Group_7956" transform="translate(0 21.263)">
    <g id="Group_7957" class="cls-2">
      <g id="Group_7956-2" transform="translate(21.011 -20.586)">
        <path id="Path_5338" class="cls-1" d="M0,0C-2.851-1.584-6.809-.159-9.026,1.9-11.243-.159-15.2-1.584-18.052,0c-3.484,1.9-3.8,7.443-1.426,11.243a27.09,27.09,0,0,0,8.868,8.551,3.967,3.967,0,0,0,1.742.792c.475,0,.792-.317,1.584-.792a29.571,29.571,0,0,0,8.867-8.868C3.8,7.443,3.483,1.9,0,0"/>
      </g>
    </g>
  </g>
</svg>
