<svg xmlns="http://www.w3.org/2000/svg" viewBox="-2165 2718 60 59.144"><g transform="translate(-2226 2663.782)"><path fill="none" d="M84.6,153.2a1.87,1.87,0,0,1,.238.306l16.122,16.122v-5.2L84.842,148.3C82.564,151.157,84.094,152.688,84.6,153.2Z" transform="translate(-14.931 -62.081)"/><path fill="none" d="M74.914,94.089,92.567,76.436V71.3L73.417,90.45c-1.667,1.667-2.483,3.2-2.517,4.626a5.323,5.323,0,0,0,1.259,3.2A11.136,11.136,0,0,1,74.914,94.089Z" transform="translate(-6.533 -11.272)"/><path fill="none" d="M163.7,158.673l19.15-19.15c1.667-1.667,2.483-3.2,2.517-4.626a5.323,5.323,0,0,0-1.258-3.2,11.137,11.137,0,0,1-2.755,4.184L163.7,153.571v5.1Z" transform="translate(-67.768 -51.127)"/><path fill="none" d="M180.161,87.729a1.872,1.872,0,0,1-.238-.306L163.8,71.3v5.2l16.122,16.122C182.2,89.769,180.671,88.239,180.161,87.729Z" transform="translate(-67.834 -11.272)"/><path fill="#53bb7d" d="M86.544,112.851a1.6,1.6,0,0,0,1.19.51.972.972,0,0,0,.646-.2,1.7,1.7,0,0,0,1.054-1.565v-10a1.732,1.732,0,0,0-.51-1.19l-16.7-16.7L88.925,67a1.6,1.6,0,0,0,.51-1.19v-9.9a1.751,1.751,0,0,0-1.054-1.565,1.683,1.683,0,0,0-1.837.374L64.5,76.763c-2.347,2.347-3.469,4.626-3.5,7.007,0,2.381,1.088,4.626,3.4,6.939Zm-.51-10.51v5.2L69.912,91.423a1.869,1.869,0,0,0-.238-.306c-.51-.51-2.041-2.041.238-4.9ZM66.884,79.178l19.15-19.15v5.136L68.381,82.817A11.137,11.137,0,0,0,65.626,87a5.323,5.323,0,0,1-1.259-3.2C64.4,82.375,65.218,80.845,66.884,79.178Z" transform="translate(0)"/><path fill="#53bb7d" d="M171.011,83.938l-16.7,16.7a1.6,1.6,0,0,0-.51,1.19v9.9a1.7,1.7,0,0,0,1.054,1.565,1.474,1.474,0,0,0,.646.136,1.762,1.762,0,0,0,1.19-.476l22.041-22.041c2.347-2.347,3.469-4.626,3.5-7.007,0-2.381-1.088-4.626-3.4-6.939L156.691,54.822a1.67,1.67,0,0,0-1.837-.374,1.7,1.7,0,0,0-1.054,1.565V66.047a1.732,1.732,0,0,0,.51,1.19Zm6.565-3.3a5.323,5.323,0,0,1,1.259,3.2c-.034,1.429-.85,2.959-2.517,4.626l-19.15,19.15v-5.1L174.82,84.822A11.137,11.137,0,0,0,177.575,80.639ZM157.2,60.094l16.122,16.122a1.866,1.866,0,0,0,.238.306c.51.51,2.041,2.041-.238,4.9L157.2,65.3v-5.2Z" transform="translate(-61.235 -0.066)"/><path fill="#53bb7d" d="M107.9,138.493v.136a1.292,1.292,0,0,0,1.293,1.293h25.272a1.292,1.292,0,0,0,1.293-1.293v-.136a1.292,1.292,0,0,0-1.293-1.292H109.193A1.292,1.292,0,0,0,107.9,138.493Z" transform="translate(-30.948 -54.757)"/><path fill="#53bb7d" d="M122.2,123.993v.136a1.292,1.292,0,0,0,1.293,1.293H139a1.292,1.292,0,0,0,1.292-1.293v-.136A1.292,1.292,0,0,0,139,122.7h-15.51A1.292,1.292,0,0,0,122.2,123.993Z" transform="translate(-40.384 -45.189)"/><path fill="#53bb7d" d="M143.049,110.821a1.292,1.292,0,0,0,1.293-1.293v-.136a1.292,1.292,0,0,0-1.293-1.293h-6.156a1.292,1.292,0,0,0-1.293,1.293v.136a1.292,1.292,0,0,0,1.293,1.293Z" transform="translate(-49.226 -35.555)"/><path fill="#53bb7d" d="M136.893,169.321h6.156a1.292,1.292,0,0,0,1.293-1.293v-.136a1.292,1.292,0,0,0-1.293-1.292h-6.156a1.292,1.292,0,0,0-1.293,1.292v.136A1.292,1.292,0,0,0,136.893,169.321Z" transform="translate(-49.226 -74.157)"/><path fill="#53bb7d" d="M123.493,154.621H139a1.292,1.292,0,0,0,1.292-1.293v-.136A1.292,1.292,0,0,0,139,151.9h-15.51a1.292,1.292,0,0,0-1.293,1.293v.136A1.292,1.292,0,0,0,123.493,154.621Z" transform="translate(-40.384 -64.457)"/></g></svg>
