<svg id="Layer_1" data-name="Layer 1" xmlns="http://www.w3.org/2000/svg" viewBox="0 0 149.94 21.12"><title>magic-sync</title><path id="Group_17162" data-name="Group 17162" d="M69.87,11.6l.54,6.65a.52.52,0,0,1-.4.62.5.5,0,0,1-.17,0h-.72a.56.56,0,0,1-.62-.5.25.25,0,0,1,0-.08l-.2-3q0-.66,0-1.32h0s-.26.82-.44,1.32l-.65,1.79a.66.66,0,0,1-.69.49h-.61a.68.68,0,0,1-.7-.49l-.65-1.79c-.17-.5-.44-1.32-.44-1.32h0a9.69,9.69,0,0,1,0,1.32l-.2,3a.56.56,0,0,1-.54.58h-.81a.52.52,0,0,1-.58-.45.55.55,0,0,1,0-.18l.55-6.65A.56.56,0,0,1,63,11h1.07a.67.67,0,0,1,.69.5l1,2.82c.17.51.4,1.3.4,1.3h0s.22-.79.4-1.3l1-2.82a.65.65,0,0,1,.68-.5h1a.58.58,0,0,1,.63.5Zm8.61,6.59a.47.47,0,0,1-.18.64.51.51,0,0,1-.32.05h-.72a.65.65,0,0,1-.69-.51l-.33-1.14H73.79l-.33,1.14a.63.63,0,0,1-.67.51h-.72a.48.48,0,0,1-.55-.38.47.47,0,0,1,0-.31l2.28-6.68a.65.65,0,0,1,.68-.5h1a.65.65,0,0,1,.68.5Zm-2.68-2.5-.44-1.53c-.15-.5-.32-1.36-.32-1.36h0s-.18.86-.32,1.36l-.45,1.53Zm10-1.26H84.23a.55.55,0,0,0-.6.48v.55a.54.54,0,0,0,.48.6.24.24,0,0,0,.12,0h.51v.55a2.06,2.06,0,0,1-1.62.64A2.23,2.23,0,0,1,80.89,15v-.13a2.1,2.1,0,0,1,1.94-2.25h.33a2.9,2.9,0,0,1,1.46.39c.36.18.63.16.84-.17l.28-.45a.54.54,0,0,0,0-.77l-.1-.07A4.9,4.9,0,0,0,83,10.88a4,4,0,0,0-4.13,3.81,1.5,1.5,0,0,0,0,.3,3.86,3.86,0,0,0,3.69,4h.18a3,3,0,0,0,2.09-.73h0s0,.07,0,.11v0c0,.27.21.47.6.47h.37a.54.54,0,0,0,.6-.47.28.28,0,0,0,0-.13V15a.53.53,0,0,0-.47-.6h-.13ZM89.25,11h-.72a.55.55,0,0,0-.6.48v6.78a.54.54,0,0,0,.48.6h.84a.53.53,0,0,0,.6-.47V11.62a.54.54,0,0,0-.47-.61Zm8.6,5.79a.53.53,0,0,0-.73-.2.47.47,0,0,0-.12.09,2.79,2.79,0,0,1-1.6.56,2.19,2.19,0,0,1-2.23-2.17,1.15,1.15,0,0,1,0-.19,2.09,2.09,0,0,1,1.92-2.25h.3a3,3,0,0,1,1.46.44.53.53,0,0,0,.74,0l.08-.13.28-.46a.56.56,0,0,0-.07-.79l-.06,0a4.43,4.43,0,0,0-2.52-.75,4,4,0,0,0-4.12,3.8,2,2,0,0,0,0,.25A3.9,3.9,0,0,0,94.91,19h.4a4.41,4.41,0,0,0,2.75-.93.58.58,0,0,0,.14-.8l0-.05Zm6.26-3.6c0-.31.25-.55.86-.55a2.7,2.7,0,0,1,1.24.36c.31.16.6.22.83-.21l.26-.51a.59.59,0,0,0-.15-.81l0,0a4,4,0,0,0-2.12-.58,2.51,2.51,0,0,0-2.79,2.23c0,.06,0,.12,0,.18,0,2.46,3.48,2.29,3.48,3.4,0,.31-.26.55-.84.55a2.85,2.85,0,0,1-1.43-.49c-.36-.2-.61-.17-.83.15l-.34.49a.54.54,0,0,0,0,.76l.11.08a4.35,4.35,0,0,0,2.5.78,2.51,2.51,0,0,0,2.75-2.23c0-.07,0-.15,0-.22,0-2.49-3.48-2.21-3.48-3.36ZM114.21,11h-.87a.71.71,0,0,0-.7.45L112,12.91c-.25.54-.47,1.13-.47,1.13h0s-.22-.59-.47-1.13l-.69-1.44a.69.69,0,0,0-.7-.45h-.87c-.47,0-.66.31-.41.73l2.19,3.91v2.62a.53.53,0,0,0,.47.6.28.28,0,0,0,.13,0h.71a.54.54,0,0,0,.61-.47V15.66l2.19-3.92C114.87,11.32,114.68,11,114.21,11Zm7.59,0h-.72a.54.54,0,0,0-.6.47.33.33,0,0,0,0,.14v3.07c0,.49.09,1.34.09,1.34h0a11.1,11.1,0,0,0-.66-1.34L118,11.42a.77.77,0,0,0-.73-.41h-.86a.55.55,0,0,0-.6.48v6.78a.54.54,0,0,0,.48.6h.84a.54.54,0,0,0,.6-.47V15.21c0-.49-.09-1.34-.09-1.34h0c.2.46.42.91.66,1.34l2,3.26a.77.77,0,0,0,.71.41h.87a.54.54,0,0,0,.6-.48.24.24,0,0,0,0-.12V11.62a.54.54,0,0,0-.46-.61ZM130,16.8a.53.53,0,0,0-.73-.2.27.27,0,0,0-.12.09,2.85,2.85,0,0,1-1.61.56,2.21,2.21,0,0,1-2.23-2.17c0-.07,0-.13,0-.19a2.09,2.09,0,0,1,1.92-2.25h.3a3.07,3.07,0,0,1,1.47.44.51.51,0,0,0,.73,0,.34.34,0,0,0,.09-.12l.28-.46a.57.57,0,0,0-.07-.79l-.07,0a4.41,4.41,0,0,0-2.52-.75,4,4,0,0,0-4.12,3.79v.26A3.9,3.9,0,0,0,127.07,19h.4a4.44,4.44,0,0,0,2.76-.93.58.58,0,0,0,.14-.8l0-.05ZM149.94,11a1,1,0,0,1-.55.9c-3.41,1.7-3.45,6.06-3.45,6.1a1,1,0,0,1-2,0c0-.08-.08-4.42-3.44-6.1a1,1,0,0,1-.45-1.35.92.92,0,0,1,.45-.44c3.4-1.71,3.44-6.06,3.44-6.11a1,1,0,1,1,2,0s.07,4.42,3.45,6.1A1,1,0,0,1,149.94,11Zm-2.84,0a7.9,7.9,0,0,1-2.16-2.8,8,8,0,0,1-2.16,2.8,8,8,0,0,1,2.16,2.8A8.11,8.11,0,0,1,147.1,11Zm-11.16-1a1,1,0,0,1-1-1h0A3.36,3.36,0,0,0,132.63,6,1,1,0,0,1,132,4.71a1,1,0,0,1,.64-.64A3.36,3.36,0,0,0,134.94,1a1,1,0,0,1,1-1,1,1,0,0,1,1,1h0V1a3.38,3.38,0,0,0,2.32,3.05,1,1,0,0,1,0,1.9A3.39,3.39,0,0,0,136.94,9,1,1,0,0,1,135.94,10Zm0-4a5.4,5.4,0,0,1,.95-1,5.35,5.35,0,0,1-.95-1A5,5,0,0,1,135,5,5,5,0,0,1,135.94,6Zm3,11V16a1,1,0,1,0-2,0v1a1,1,0,0,0,0,2v1a1,1,0,0,0,2,0V19a1,1,0,0,0,0-2Zm-139-5.6a.32.32,0,0,1,.37-.36H2.77A2.31,2.31,0,0,1,5.2,13.48a2.33,2.33,0,0,1-2.43,2.46H1v2.51a.32.32,0,0,1-.36.36H.3a.32.32,0,0,1-.37-.36ZM2.59,15A1.41,1.41,0,0,0,4.1,13.48,1.37,1.37,0,0,0,2.61,12H1v3ZM8.8,13.12A2.92,2.92,0,1,1,8.8,19a2.92,2.92,0,1,1,0-5.83Zm0,4.9a2,2,0,1,0-1.92-2A1.92,1.92,0,0,0,8.8,18Zm3.63-4.37c-.08-.25,0-.4.31-.4h.36a.38.38,0,0,1,.41.31l1.09,3.59c.07.29.13.6.13.6h0s.06-.31.15-.6L16,13.57a.36.36,0,0,1,.39-.31h.34a.38.38,0,0,1,.41.31l1.12,3.58c.08.29.15.6.15.6h0a5,5,0,0,1,.14-.6l1.09-3.59a.36.36,0,0,1,.4-.31h.36c.26,0,.38.15.31.4l-1.58,4.86a.37.37,0,0,1-.4.3h-.54a.38.38,0,0,1-.41-.3l-1.07-3.27a4.1,4.1,0,0,1-.15-.61h0a6.29,6.29,0,0,1-.17.61l-1.05,3.27a.38.38,0,0,1-.41.3h-.55a.38.38,0,0,1-.41-.3Zm11.75-.53a2.35,2.35,0,0,1,2.39,2.65.36.36,0,0,1-.37.37H22.48A1.88,1.88,0,0,0,24.41,18a2.26,2.26,0,0,0,1.33-.44c.21-.11.37-.09.49.12l.1.17a.32.32,0,0,1-.11.48,3.31,3.31,0,0,1-1.88.6A2.84,2.84,0,0,1,21.39,16,2.73,2.73,0,0,1,24.18,13.12Zm1.33,2.32A1.36,1.36,0,0,0,24.15,14a1.63,1.63,0,0,0-1.62,1.49Zm2.23-1.83a.32.32,0,0,1,.36-.36h.31a.32.32,0,0,1,.36.36v.64a3,3,0,0,1,0,.42h0a2,2,0,0,1,1.71-1.47c.25,0,.35.12.35.37v.31c0,.24-.14.36-.4.36-1.08,0-1.61,1.18-1.61,2.27v1.94a.32.32,0,0,1-.37.36H28.1a.32.32,0,0,1-.36-.36Zm6.17-.49a2.36,2.36,0,0,1,2.4,2.65.36.36,0,0,1-.37.37H32.22A1.87,1.87,0,0,0,34.14,18a2.24,2.24,0,0,0,1.33-.44.33.33,0,0,1,.5.12l.1.17a.32.32,0,0,1-.11.48,3.31,3.31,0,0,1-1.88.6A2.84,2.84,0,0,1,31.13,16,2.72,2.72,0,0,1,33.91,13.12Zm1.33,2.32A1.35,1.35,0,0,0,33.89,14a1.65,1.65,0,0,0-1.63,1.49Zm4.41-2.32a1.89,1.89,0,0,1,1.73,1h0a2.23,2.23,0,0,1,0-.37V11.41a.32.32,0,0,1,.36-.36h.34a.32.32,0,0,1,.37.36v7a.32.32,0,0,1-.37.36h-.28c-.24,0-.36-.12-.36-.34v-.32a1.83,1.83,0,0,1,0-.27h0A2,2,0,0,1,39.59,19c-1.51,0-2.46-1.19-2.46-2.92S38.18,13.12,39.65,13.12ZM39.8,18c.82,0,1.6-.58,1.6-2,0-1-.51-2-1.58-2-.87,0-1.6.72-1.6,2S38.87,18,39.8,18Zm7-6.61a.32.32,0,0,1,.36-.36h.34a.32.32,0,0,1,.35.36v2.26a3.51,3.51,0,0,1,0,.47h0a2,2,0,0,1,1.82-1C51.08,13.12,52,14.3,52,16S51,19,49.52,19a2,2,0,0,1-1.78-1.06h0a1.62,1.62,0,0,1,0,.33v.28c0,.19-.13.31-.36.31h-.28a.32.32,0,0,1-.36-.36ZM49.34,18c.9,0,1.62-.71,1.62-2s-.65-2-1.57-2-1.61.59-1.61,2C47.78,17.05,48.3,18,49.34,18Zm3.74,2.08a1,1,0,0,0,.44.12,1.12,1.12,0,0,0,1-.83l.28-.64L52.6,13.67c-.11-.26,0-.42.28-.42h.42a.39.39,0,0,1,.41.28L55,16.89c.1.27.2.67.2.67h0s.09-.37.19-.66l1.26-3.35a.38.38,0,0,1,.41-.3h.4c.26,0,.38.16.28.42l-2.45,6.12a1.92,1.92,0,0,1-1.81,1.34,2,2,0,0,1-.77-.18.33.33,0,0,1-.16-.47l.09-.19A.31.31,0,0,1,53.08,20.1Z"/></svg>