<svg xmlns="http://www.w3.org/2000/svg" viewBox="-14076 -340 127.919 97.015">
  <g transform="translate(-14076.085 -339.985)">
    <circle cx="3" cy="3" r="3" transform="translate(22 32)"/>
    <circle cx="3" cy="3" r="3" transform="translate(32 32)"/>
    <circle cx="3" cy="3" r="3" transform="translate(42 32)"/>
    <path d="M126.8,30.4,128,9.7a4.017,4.017,0,0,0-3.8-4.2L26.8,0a3.833,3.833,0,0,0-2.9,1,3.676,3.676,0,0,0-1.3,2.7l-.5,9.7-18.3,1a3.872,3.872,0,0,0-2.7,1.3,3.833,3.833,0,0,0-1,2.9l1,17.9h0l.1,1.2L3.9,85.2a3.872,3.872,0,0,0,1.3,2.7,3.775,3.775,0,0,0,2.7,1h.2l4.1-.2V93a4.012,4.012,0,0,0,4,4h98a4.012,4.012,0,0,0,4-4V79.9l2.1.1h.2a4,4,0,0,0,2.6-1,3.676,3.676,0,0,0,1.3-2.7l2.5-44.7h0ZM26.6,4,124,9.4l-1,17.9-5-.3V26a4.012,4.012,0,0,0-4-4h-8l-.5-9.2A4.017,4.017,0,0,0,101.3,9L26.1,13.2ZM114,26V44H16V26ZM4,18.4l97.5-5.5.5,9H16a4.012,4.012,0,0,0-4,4v9.9l-7,.4ZM7.7,85,5.2,40.3l6.8-.4V84.8ZM16,93V48h98V93ZM120.3,76l-2.3-.1V31l4.8.3Z"/>
    <path d="M64,54A16.5,16.5,0,1,0,80.5,70.5,16.516,16.516,0,0,0,64,54Zm7,14.3-7,8a2.1,2.1,0,0,1-1.4.7h-.1a1.974,1.974,0,0,1-1.4-.6l-4-4a1.98,1.98,0,0,1,2.8-2.8l2.5,2.5L68,65.7a1.985,1.985,0,1,1,3,2.6Z"/>
  </g>
</svg>
