<svg xmlns="http://www.w3.org/2000/svg" width="151.001" height="21.8" viewBox="0 0 151.001 21.8">
  <g id="Group_17162" data-name="Group 17162" transform="translate(-100 -745.2)">
    <g id="Group_17156" data-name="Group 17156" transform="translate(-6)">
      <text id="Powered_by" data-name="Powered by" transform="translate(106 764)" fill="#c7c4c4" font-size="11" font-family="MuseoSansRounded-500, Museo Sans Rounded" font-weight="500"><tspan x="0" y="0">Powered by</tspan></text>
    </g>
    <path id="Path_8438" data-name="Path 8438" d="M10.665,11.585l.539,6.656a.521.521,0,0,1-.572.627H9.917a.566.566,0,0,1-.627-.583l-.2-2.96a11.687,11.687,0,0,1,0-1.319H9.069s-.263.825-.439,1.319l-.65,1.794a.666.666,0,0,1-.693.484H6.672a.666.666,0,0,1-.693-.484l-.65-1.794c-.176-.494-.439-1.319-.439-1.319H4.867a11.687,11.687,0,0,1,0,1.319l-.2,2.96a.566.566,0,0,1-.627.583H3.316a.521.521,0,0,1-.572-.627l.55-6.656A.566.566,0,0,1,3.921,11h.99a.646.646,0,0,1,.683.495l.978,2.827c.176.507.4,1.3.4,1.3H6.99s.221-.792.4-1.3L8.365,11.5A.646.646,0,0,1,9.048,11h.99A.566.566,0,0,1,10.665,11.585Zm8.612,6.59a.471.471,0,0,1-.5.693h-.725a.654.654,0,0,1-.683-.506l-.33-1.144H14.591l-.33,1.144a.635.635,0,0,1-.671.506h-.727a.472.472,0,0,1-.495-.693L14.646,11.5A.645.645,0,0,1,15.328,11h.99A.644.644,0,0,1,17,11.5Zm-2.684-2.5-.44-1.53c-.143-.495-.319-1.353-.319-1.353h-.021s-.177.858-.32,1.353l-.451,1.53Zm10.044-1.254H25.03a.54.54,0,0,0-.6.6v.43a.54.54,0,0,0,.6.6h.507V16.6a2.066,2.066,0,0,1-1.618.638,2.234,2.234,0,0,1-2.232-2.365,2.1,2.1,0,0,1,2.265-2.245,2.9,2.9,0,0,1,1.464.386c.362.186.627.165.836-.165l.286-.452a.542.542,0,0,0-.154-.836,4.8,4.8,0,0,0-2.553-.693,3.975,3.975,0,0,0-4.137,4.114A3.857,3.857,0,0,0,23.567,19a2.949,2.949,0,0,0,2.09-.737h.023a.5.5,0,0,0-.011.11V18.4c0,.263.209.472.6.472h.364a.541.541,0,0,0,.605-.6V15.028A.54.54,0,0,0,26.637,14.424ZM30.046,11h-.715a.541.541,0,0,0-.6.605v6.656a.541.541,0,0,0,.6.6h.715a.541.541,0,0,0,.6-.6V11.607A.541.541,0,0,0,30.046,11Zm8.6,5.787a.533.533,0,0,0-.846-.11,2.855,2.855,0,0,1-1.607.561,2.2,2.2,0,0,1-2.221-2.365,2.089,2.089,0,0,1,2.221-2.245,2.99,2.99,0,0,1,1.464.44.522.522,0,0,0,.824-.165l.276-.451a.56.56,0,0,0-.132-.836,4.4,4.4,0,0,0-2.52-.748,3.963,3.963,0,0,0-4.125,4.049A3.909,3.909,0,0,0,36.106,19a4.433,4.433,0,0,0,2.751-.935.57.57,0,0,0,.1-.847Zm6.259-3.6c0-.307.253-.549.859-.549A2.67,2.67,0,0,1,47.008,13c.307.154.6.221.825-.209l.264-.517a.577.577,0,0,0-.188-.825,4.049,4.049,0,0,0-2.123-.583,2.527,2.527,0,0,0-2.806,2.409c0,2.465,3.477,2.288,3.477,3.4,0,.308-.264.55-.836.55a2.851,2.851,0,0,1-1.43-.484c-.363-.2-.616-.177-.836.143l-.341.495a.534.534,0,0,0,.11.836,4.395,4.395,0,0,0,2.5.781,2.5,2.5,0,0,0,2.762-2.453C48.383,14.061,44.906,14.336,44.906,13.191ZM55.005,11h-.869a.705.705,0,0,0-.7.451L52.761,12.9c-.253.539-.474,1.132-.474,1.132h-.021s-.221-.593-.474-1.132l-.682-1.442a.706.706,0,0,0-.7-.451h-.869c-.473,0-.66.309-.418.727l2.19,3.916v2.618a.54.54,0,0,0,.6.6h.715a.541.541,0,0,0,.605-.6V15.645l2.19-3.916C55.665,11.311,55.478,11,55.005,11Zm7.59,0H61.88a.541.541,0,0,0-.606.605v3.07c0,.495.088,1.342.088,1.342h-.021a14.213,14.213,0,0,0-.66-1.342l-1.937-3.268A.75.75,0,0,0,58.019,11H57.16a.541.541,0,0,0-.6.605v6.656a.541.541,0,0,0,.6.6h.715a.54.54,0,0,0,.6-.6V15.2c0-.495-.087-1.343-.087-1.343h.021a14.305,14.305,0,0,0,.66,1.343l1.948,3.256a.744.744,0,0,0,.714.407H62.6a.541.541,0,0,0,.6-.6V11.607A.541.541,0,0,0,62.6,11Zm8.217,5.787a.534.534,0,0,0-.847-.11,2.855,2.855,0,0,1-1.607.561,2.2,2.2,0,0,1-2.221-2.365,2.089,2.089,0,0,1,2.221-2.245,2.99,2.99,0,0,1,1.464.44.523.523,0,0,0,.825-.165l.275-.451a.56.56,0,0,0-.132-.836,4.4,4.4,0,0,0-2.519-.748,3.962,3.962,0,0,0-4.125,4.049A3.908,3.908,0,0,0,68.271,19a4.438,4.438,0,0,0,2.751-.935.57.57,0,0,0,.1-.847ZM90.741,11a1,1,0,0,1-.553.9c-3.408,1.7-3.447,6.061-3.447,6.1a1,1,0,0,1-2,0c0-.085-.08-4.424-3.448-6.107a1,1,0,0,1,0-1.79C84.7,8.4,84.741,4.044,84.741,4a1,1,0,0,1,2,0c0,.041.063,4.414,3.447,6.1A1,1,0,0,1,90.741,11ZM87.9,11a7.986,7.986,0,0,1-2.163-2.8A8,8,0,0,1,83.578,11a8,8,0,0,1,2.163,2.8A7.986,7.986,0,0,1,87.9,11ZM76.741,10a1,1,0,0,1-1-.982v0h0v0a3.369,3.369,0,0,0-2.317-3.058,1,1,0,0,1,0-1.9A3.369,3.369,0,0,0,75.741.994a1,1,0,0,1,2-.012v0h0V1a3.366,3.366,0,0,0,2.316,3.052,1,1,0,0,1,0,1.9,3.367,3.367,0,0,0-2.316,3.058A1,1,0,0,1,76.741,10Zm0-3.983A5.147,5.147,0,0,1,77.683,5a5.147,5.147,0,0,1-.942-1.017A5.152,5.152,0,0,1,75.8,5,5.152,5.152,0,0,1,76.741,6.017Zm3,10.983V16a1,1,0,0,0-2,0v1a1,1,0,0,0,0,2v1a1,1,0,0,0,2,0V19a1,1,0,0,0,0-2Z" transform="translate(160.26 745.2)" fill="#c7c4c4"/>
  </g>
</svg>
