<svg width="14" height="15" viewBox="0 0 14 15" fill="none" xmlns="http://www.w3.org/2000/svg">
    <path d="M11.5188 0.00875965C12.0663 -0.063705 12.5689 0.321395 12.6414 0.868905L13.0914 4.26891C13.1533 4.737 12.8794 5.18464 12.4344 5.34254L9.33441 6.44254C8.81392 6.62723 8.24226 6.35501 8.05757 5.83452C7.87288 5.31404 8.1451 4.74238 8.66559 4.55769L10.0605 4.06274C9.22573 3.40645 8.14645 3.00011 7 3.00011C4.25229 3.00011 2 5.2524 2 8.00011C2 10.7478 4.25229 13.0001 7 13.0001C9.32698 13.0001 11.3081 11.4299 11.8001 9.27729C11.8074 9.24575 11.8161 9.21458 11.8263 9.18389C11.9367 8.85278 12 8.43706 12 8.00011C12 7.44783 12.4477 7.00011 13 7.00011C13.5523 7.00011 14 7.44783 14 8.00011C14 8.5963 13.918 9.21256 13.7391 9.76924C13.0137 12.8421 10.2069 15.0001 7 15.0001C3.14772 15.0001 0 11.8524 0 8.00011C0 4.14783 3.14772 1.00011 7 1.00011C8.38453 1.00011 9.69886 1.41884 10.7906 2.12844L10.6586 1.13132C10.5862 0.583813 10.9713 0.0812244 11.5188 0.00875965Z" fill="#51BB7B"/>
</svg>
    