<svg width="17" height="14" viewBox="0 0 17 14" fill="none" xmlns="http://www.w3.org/2000/svg">
    <path fill-rule="evenodd" clip-rule="evenodd" d="M3 0H14C15.6569 0 17 1.34315 17 3V11C17 12.6569 15.6569 14 14 14H3C1.34315 14 0 12.6569 0 11V3C0 1.34315 1.34315 0 3 0ZM3 2C2.44772 2 2 2.44772 2 3V11C2 11.5523 2.44772 12 3 12H14C14.5523 12 15 11.5523 15 11V3C15 2.44772 14.5523 2 14 2H3ZM4.29289 4.29289C4.68342 3.90237 5.31658 3.90237 5.70711 4.29289L7.70711 6.29289C8.09763 6.68342 8.09763 7.31658 7.70711 7.70711L5.70711 9.70711C5.31658 10.0976 4.68342 10.0976 4.29289 9.70711C3.90237 9.31658 3.90237 8.68342 4.29289 8.29289L5.58579 7L4.29289 5.70711C3.90237 5.31658 3.90237 4.68342 4.29289 4.29289ZM10 8C9.44771 8 9 8.44771 9 9C9 9.55229 9.44771 10 10 10H12.5C13.0523 10 13.5 9.55229 13.5 9C13.5 8.44771 13.0523 8 12.5 8H10Z" fill="black" />
</svg>
