<svg width="18" height="18" viewBox="0 0 18 18" xmlns="http://www.w3.org/2000/svg">
	<path fill-rule="evenodd" clip-rule="evenodd" d="M16 9C16 12.866 12.866 16 9 16C5.13401 16 2 12.866 2 9C2 5.13401 5.13401 2 9 2C12.866 2 16 5.13401 16 9ZM18 9C18 13.9706 13.9706 18 9 18C4.02944 18 0 13.9706 0 9C0 4.02944 4.02944 0 9 0C13.9706 0 18 4.02944 18 9ZM5.03032 10.0946L7.29289 12.3571C7.68342 12.7477 8.31658 12.7477 8.70711 12.3571L13.3033 7.76094C13.6938 7.37041 13.6938 6.73725 13.3033 6.34672C12.9128 5.9562 12.2796 5.9562 11.8891 6.34672L8 10.2358L6.44453 8.68034C6.05401 8.28982 5.42084 8.28982 5.03032 8.68034C4.6398 9.07087 4.6398 9.70403 5.03032 10.0946Z" />
</svg>
