<svg width="16" height="17" viewBox="0 0 16 17" fill="none" xmlns="http://www.w3.org/2000/svg">
    <path d="M7.66693 0.83313C6.15055 0.83313 4.66823 1.28279 3.40741 2.12524C2.14659 2.96769 1.1639 4.1651 0.583613 5.56605C0.00332178 6.967 -0.148509 8.50856 0.147321 9.9958C0.443151 11.483 1.17335 12.8492 2.24559 13.9214C3.31783 14.9936 4.68395 15.7238 6.17118 16.0197C7.65842 16.3155 9.19999 16.1637 10.6009 15.5834C12.0019 15.0031 13.1993 14.0204 14.0417 12.7596C14.8842 11.4988 15.3339 10.0164 15.3339 8.50006C15.3317 6.46732 14.5233 4.51845 13.0859 3.08109C11.6485 1.64373 9.69966 0.835278 7.66693 0.83313V0.83313ZM0.770752 8.50006C0.770702 7.5323 0.975013 6.57544 1.37031 5.6921L4.65857 14.6977C3.49504 14.1329 2.51381 13.2522 1.82691 12.1563C1.14002 11.0604 0.77516 9.79343 0.773998 8.50006H0.770752ZM7.66693 15.3962C7.00775 15.3961 6.352 15.3013 5.71977 15.1147L7.78781 9.09962L9.90616 14.9046C9.92053 14.9373 9.93706 14.969 9.95565 14.9995C9.22062 15.2598 8.44667 15.3931 7.66693 15.3938V15.3962ZM8.61698 5.26778C9.03156 5.24587 9.40233 5.20531 9.40233 5.20531C9.77391 5.1615 9.72686 4.61548 9.35852 4.63739C9.35852 4.63739 8.24215 4.72501 7.52089 4.72501C6.8475 4.71852 5.70923 4.63739 5.70923 4.63739C5.33764 4.61548 5.29383 5.1834 5.66541 5.20531C5.66541 5.20531 6.01671 5.24912 6.3883 5.27102L7.46248 8.20717L5.95343 12.7311L3.44322 5.26697C3.85862 5.24506 4.23263 5.20125 4.23263 5.20125C4.6034 5.15744 4.55716 4.61142 4.18801 4.63333C4.18801 4.63739 3.07407 4.71852 2.35119 4.71852C2.22138 4.71852 2.06967 4.71852 1.9074 4.7104C2.45657 3.8773 3.17999 3.17329 4.02772 2.64697C4.87545 2.12066 5.8273 1.78458 6.81756 1.66194C7.80782 1.53929 8.8129 1.633 9.76341 1.9366C10.7139 2.2402 11.5872 2.74645 12.3231 3.42041C12.2939 3.42041 12.2646 3.41473 12.2338 3.41473C11.5572 3.41473 11.0761 4.00456 11.0761 4.6382C11.0761 5.20612 11.4006 5.68723 11.7535 6.25515C12.0156 6.71435 12.3214 7.30418 12.3214 8.15606C12.3214 8.74588 12.0951 9.43063 11.7973 10.3847L11.1061 12.6775L8.61698 5.26778ZM13.7153 5.19314C14.575 6.76935 14.7861 8.61871 14.3037 10.3481C13.8213 12.0775 12.6835 13.5506 11.1321 14.4543L13.2415 8.36943C13.635 7.38612 13.7664 6.59996 13.7664 5.9006C13.7654 5.66389 13.7484 5.42752 13.7153 5.19314V5.19314Z" fill="#5D5E5E"/>
</svg>
    