<svg width="34" height="31" viewBox="0 0 34 31" fill="none" xmlns="http://www.w3.org/2000/svg">
    <path fill-rule="evenodd" clip-rule="evenodd" d="M21.3751 2.5571L33.0751 22.5221C34.0751 24.1941 33.9751 26.0627 33.0751 27.6363C32.1751 29.2099 30.4751 30.1934 28.5751 30.1934H5.17501C3.27501 30.1934 1.575 29.2099 0.675002 27.6363C-0.225001 26.0627 -0.225001 24.0957 0.675002 22.5221L12.375 2.5571C13.275 0.983504 14.975 0 16.875 0C18.7751 0 20.4751 0.983504 21.3751 2.5571ZM28.5751 28.3247C29.7751 28.3247 30.7751 27.7346 31.3751 26.7511C31.9751 25.7677 31.9751 24.4891 31.2751 23.6039L19.5751 3.63895C18.9751 2.65546 17.975 2.06535 16.775 2.06535C15.575 2.06535 14.575 2.65546 13.975 3.63895L2.275 23.6039C1.675 24.5874 1.675 25.7677 2.275 26.7511C2.87501 27.7346 3.87501 28.3247 5.07502 28.3247H28.5751ZM17.2751 9.53992H16.275C15.675 9.53992 15.375 9.83496 15.375 10.4251L15.575 19.5716C15.575 20.1617 15.975 20.4567 16.475 20.4567H17.0751C17.6751 20.4567 17.9751 20.1617 17.9751 19.5716L18.1751 10.4251C18.2751 9.83496 17.8751 9.53992 17.2751 9.53992ZM17.2751 22.3254H16.3751C15.7751 22.3254 15.4751 22.6205 15.4751 23.2106V23.9974C15.4751 24.5875 15.7751 24.8826 16.3751 24.8826H17.2751C17.8751 24.8826 18.175 24.5875 18.175 23.9974V23.2106C18.175 22.6205 17.8751 22.3254 17.2751 22.3254Z" fill="#F47820"/>
</svg>
    